# File created by Blade
# Date/Time:  Mon Nov 15 14:44:42 2010
#---------------------------------------------------------
:version 1.10
:name HOM
:units
  mass 1.0
  length 1.000000
  angle deg
:documentation
     Acclaim Skeleton File
:root
   axis xyz
   order TX TY TZ RX RY RZ
   position 0.000000 0.000000 0.000000
   orientation 0 0 0
:bonedata
   begin
      id 1
      name LeftUpLeg_dum
      direction 1.000000 0.000000 0.000000
      length 4.719518
      axis 0.0 0.0 0.0 xyz
   end
   begin
      id 2
      name RightUpLeg_dum
      direction -1.000000 0.000000 0.000000
      length 4.719518
      axis 0.0 0.0 0.0 xyz
   end
   begin
      id 3
      name Spine_dum
      direction 0.000000 1.000000 0.000000
      length 0.039370
      axis 0.0 0.0 0.0 xyz
   end
   begin
      id 4
      name LeftUpLeg
      direction 0.000000 -1.000000 0.000000
      length 19.141694
      axis 0.0 0.0 0.0 xyz
      dof rx ry rz
   end
   begin
      id 5
      name LeftLeg
      direction 0.000000 -1.000000 0.000000
      length 19.555040
      axis 0.0 0.0 0.0 xyz
      dof rx ry rz
   end
   begin
      id 6
      name LeftFoot
      direction 0.000000 -0.258819 0.965926
      length 6.929396
      axis 15.0 0.0 0.0 xyz
      dof rx ry rz
   end
   begin
      id 7
      name LeftToeBase
      direction 0.000000 0.000000 1.000000
      length 2.952750
      axis 0.0 0.0 0.0 xyz
      dof rx ry rz
   end
   begin
      id 8
      name RightUpLeg
      direction 0.000000 -1.000000 0.000000
      length 19.141694
      axis 0.0 0.0 0.0 xyz
      dof rx ry rz
   end
   begin
      id 9
      name RightLeg
      direction 0.000000 -1.000000 0.000000
      length 19.555040
      axis 0.0 0.0 0.0 xyz
      dof rx ry rz
   end
   begin
      id 10
      name RightFoot
      direction 0.000000 -0.258819 0.965926
      length 6.929396
      axis 15.0 0.0 0.0 xyz
      dof rx ry rz
   end
   begin
      id 11
      name RightToeBase
      direction 0.000000 0.000000 1.000000
      length 2.952750
      axis 0.0 0.0 0.0 xyz
      dof rx ry rz
   end
   begin
      id 12
      name Spine
      direction 0.000000 1.000000 0.000000
      length 11.965764
      axis 0.0 0.0 0.0 xyz
      dof rx ry rz
   end
   begin
      id 13
      name Spine1
      direction 0.000000 1.000000 0.000000
      length 0.000000
      axis 0.0 0.0 0.0 xyz
      dof rx ry rz
   end
   begin
      id 14
      name Spine1_dum1
      direction 0.000000 1.000000 0.000000
      length 9.788721
      axis 0.0 0.0 0.0 xyz
   end
   begin
      id 15
      name Spine1_dum2
      direction 0.000000 1.000000 0.000000
      length 9.788721
      axis 0.0 0.0 0.0 xyz
   end
   begin
      id 16
      name Spine1_dum3
      direction 0.000000 1.000000 0.000000
      length 9.788721
      axis 0.0 0.0 0.0 xyz
   end
   begin
      id 17
      name Neck
      direction 0.000000 1.000000 0.000000
      length 7.029632
      axis 0.0 0.0 0.0 xyz
      dof rx ry rz
   end
   begin
      id 18
      name Head
      direction 0.000000 1.000000 0.000000
      length 4.527550
      axis 0.0 0.0 0.0 xyz
      dof rx ry rz
   end
   begin
      id 19
      name LeftShoulder
      direction 1.000000 -0.000004 0.000000
      length 9.320257
      axis 0.0 0.0 -90.0 xyz
      dof rx ry rz
   end
   begin
      id 20
      name LeftArm
      direction 1.000000 -0.000004 0.000000
      length 12.801352
      axis 0.0 0.0 -90.0 xyz
      dof rx ry rz
   end
   begin
      id 21
      name LeftForeArm
      direction 1.000000 -0.000004 0.000000
      length 11.278127
      axis 0.0 0.0 -90.0 xyz
      dof rx ry rz
   end
   begin
      id 22
      name LeftHand
      direction 0.000000 0.000000 0.000000
      length 0.000000
      axis 0.0 0.0 -90.0 xyz
      dof rx ry rz
   end
   begin
      id 23
      name LeftHand_dum1
      direction 0.000000 0.000000 0.000000
      length 0.000000
      axis 0.0 0.0 -90.0 xyz
   end
   begin
      id 24
      name LeftHand_dum2
      direction 1.000000 -0.000004 0.000000
      length 3.937000
      axis 0.0 0.0 -90.0 xyz
   end
   begin
      id 25
      name LeftHandThumb
      direction 0.000000 0.000000 1.000000
      length 3.937000
      axis 0.0 0.0 -90.0 xyz
      dof rx ry rz
   end
   begin
      id 26
      name RightShoulder
      direction -1.000000 -0.000004 0.000000
      length 9.320257
      axis 0.0 0.0 90.0 xyz
      dof rx ry rz
   end
   begin
      id 27
      name RightArm
      direction -1.000000 -0.000004 0.000000
      length 12.801352
      axis 0.0 0.0 90.0 xyz
      dof rx ry rz
   end
   begin
      id 28
      name RightForeArm
      direction -1.000000 -0.000004 0.000000
      length 11.278127
      axis 0.0 0.0 90.0 xyz
      dof rx ry rz
   end
   begin
      id 29
      name RightHand
      direction 0.000000 0.000000 0.000000
      length 0.000000
      axis 0.0 0.0 90.0 xyz
      dof rx ry rz
   end
   begin
      id 30
      name RightHand_dum1
      direction 0.000000 0.000000 0.000000
      length 0.000000
      axis 0.0 0.0 90.0 xyz
   end
   begin
      id 31
      name RightHand_dum2
      direction -1.000000 -0.000004 0.000000
      length 5.393690
      axis 0.0 0.0 90.0 xyz
   end
   begin
      id 32
      name RightHandThumb
      direction 0.000000 0.000000 1.000000
      length 3.937000
      axis 0.0 0.0 90.0 xyz
      dof rx ry rz
   end
:hierarchy
   begin
      root LeftUpLeg_dum RightUpLeg_dum Spine_dum
      LeftUpLeg_dum LeftUpLeg
      RightUpLeg_dum RightUpLeg
      Spine_dum Spine
      LeftUpLeg LeftLeg
      LeftLeg LeftFoot
      LeftFoot LeftToeBase
      RightUpLeg RightLeg
      RightLeg RightFoot
      RightFoot RightToeBase
      Spine Spine1
      Spine1 Spine1_dum1 Spine1_dum2 Spine1_dum3
      Spine1_dum1 Neck
      Spine1_dum2 LeftShoulder
      Spine1_dum3 RightShoulder
      Neck Head
      LeftShoulder LeftArm
      LeftArm LeftForeArm
      LeftForeArm LeftHand
      LeftHand LeftHand_dum1 LeftHand_dum2
      LeftHand_dum1 LeftHandThumb
      RightShoulder RightArm
      RightArm RightForeArm
      RightForeArm RightHand
      RightHand RightHand_dum1 RightHand_dum2
      RightHand_dum1 RightHandThumb
   end

# File created by Blade
# Date/Time:  Mon Nov 15 14:56:25 2010
# Frame Rate: 200.000 fps
#------------------------------------------------------
:FULLY-SPECIFIED
:DEGREES
896
root  2.144278 41.537485 104.083286 -15.255625 1.660732 0.412627
LeftUpLeg  19.791675 12.077591 0.375967
LeftLeg  -6.841874 0.000000 -0.000000
LeftFoot  10.621041 2.476866 4.953941
LeftToeBase  -13.465726 0.000000 -0.000000
RightUpLeg  19.989470 -5.525846 -0.058478
RightLeg  -5.857212 0.000000 -0.000000
RightFoot  6.299463 -11.778022 -8.742720
RightToeBase  -24.816712 0.000000 -0.000000
Spine  14.039241 -1.814685 0.757285
Spine1  -1.259231 0.580880 -2.374460
Neck  9.940040 -2.924788 -2.643161
Head  -14.126628 -7.305155 3.127799
LeftShoulder  -14.733478 4.540759 19.661629
LeftArm  10.262804 -47.512206 -30.516330
LeftForeArm  6.565289 -0.000000 0.000000
LeftHand  -9.636085 13.575734 -10.653247
LeftHandThumb  0.000000 -0.000000 0.000000
RightShoulder  -17.118322 -11.825146 -19.595828
RightArm  9.630082 29.791427 35.323813
RightForeArm  12.935286 -0.000000 0.000000
RightHand  -2.788367 2.486327 14.679508
RightHandThumb  0.000000 -0.000000 0.000000
897
root  2.139348 41.535677 104.094223 -15.241264 1.714276 0.410553
LeftUpLeg  19.772672 12.038320 0.369666
LeftLeg  -6.814811 0.000000 -0.000000
LeftFoot  10.587271 2.479480 4.998935
LeftToeBase  -13.452856 0.000000 -0.000000
RightUpLeg  19.986293 -5.569771 -0.062157
RightLeg  -5.832936 0.000000 -0.000000
RightFoot  6.255929 -11.785120 -8.752905
RightToeBase  -24.849610 0.000000 -0.000000
Spine  14.040698 -1.823810 0.751889
Spine1  -1.272204 0.569402 -2.377362
Neck  9.932353 -2.880613 -2.647362
Head  -14.087469 -7.275463 3.131292
LeftShoulder  -14.662500 4.564725 19.508082
LeftArm  10.458157 -47.517596 -30.777667
LeftForeArm  6.654108 -0.000000 0.000000
LeftHand  -9.694116 13.448822 -10.714204
LeftHandThumb  0.000000 -0.000000 0.000000
RightShoulder  -17.087757 -11.800154 -19.495592
RightArm  9.693932 29.834948 35.464044
RightForeArm  13.083412 -0.000000 0.000000
RightHand  -2.653332 2.365327 14.985236
RightHandThumb  0.000000 -0.000000 0.000000
898
root  2.134817 41.533379 104.105780 -15.215531 1.772503 0.417828
LeftUpLeg  19.738541 11.984827 0.347302
LeftLeg  -6.779990 0.000000 -0.000000
LeftFoot  10.553302 2.490791 5.057411
LeftToeBase  -13.462769 0.000000 -0.000000
RightUpLeg  19.969996 -5.593829 -0.067943
RightLeg  -5.805413 0.000000 -0.000000
RightFoot  6.213530 -11.818787 -8.767992
RightToeBase  -24.921176 0.000000 -0.000000
Spine  14.007828 -1.840478 0.741582
Spine1  -1.251486 0.549657 -2.394939
Neck  9.923242 -2.862771 -2.624396
Head  -14.052377 -7.212140 3.098126
LeftShoulder  -14.634994 4.624932 19.373107
LeftArm  10.761675 -47.492441 -31.119038
LeftForeArm  6.716783 -0.000000 0.000000
LeftHand  -9.560622 13.304675 -10.714503
LeftHandThumb  0.000000 -0.000000 0.000000
RightShoulder  -17.019556 -11.783133 -19.404497
RightArm  9.742641 29.854859 35.605929
RightForeArm  13.189116 -0.000000 0.000000
RightHand  -2.626315 2.188264 15.055512
RightHandThumb  0.000000 -0.000000 0.000000
899
root  2.130285 41.530910 104.117224 -15.189789 1.830727 0.425129
LeftUpLeg  19.704438 11.931321 0.324975
LeftLeg  -6.745170 0.000000 -0.000000
LeftFoot  10.519343 2.502136 5.115881
LeftToeBase  -13.472681 0.000000 -0.000000
RightUpLeg  19.953700 -5.617889 -0.073723
RightLeg  -5.777890 0.000000 -0.000000
RightFoot  6.171135 -11.852465 -8.783055
RightToeBase  -24.992741 0.000000 -0.000000
Spine  13.974962 -1.857151 0.731284
Spine1  -1.230763 0.529919 -2.412523
Neck  9.914139 -2.844925 -2.601432
Head  -14.017327 -7.148797 3.065003
LeftShoulder  -14.607629 4.685204 19.238149
LeftArm  11.064817 -47.466065 -31.460040
LeftForeArm  6.779457 -0.000000 0.000000
LeftHand  -9.427207 13.160529 -10.715147
LeftHandThumb  0.000000 -0.000000 0.000000
RightShoulder  -16.951331 -11.766218 -19.313388
RightArm  9.791417 29.874666 35.747861
RightForeArm  13.294820 -0.000000 0.000000
RightHand  -2.599518 2.011168 15.125697
RightHandThumb  0.000000 -0.000000 0.000000
